<?xml version="1.0" encoding="utf-8"?>
<!-- Generator: Adobe Illustrator 25.0.0, SVG Export Plug-In . SVG Version: 6.00 Build 0)  -->
<svg version="1.1" id="Layer_1" xmlns="http://www.w3.org/2000/svg" xmlns:xlink="http://www.w3.org/1999/xlink" x="0px" y="0px"
	 viewBox="0 0 363.7 512" style="enable-background:new 0 0 363.7 512;" xml:space="preserve">
<style type="text/css">
	.st0{fill:#E34E26;}
	.st1{fill:#EF662A;}
	.st2{fill:#FFFFFF;}
	.st3{fill:#EBEBEB;}
</style>
<g>
	<g>
		<g>
			<path d="M34.4,0h23.1v22.8h21.1V0h23.1v69H78.6V45.9H57.4V69H34.4L34.4,0L34.4,0z"/>
			<path d="M132,22.9h-20.3V0h63.7v22.9h-20.3V69H132L132,22.9L132,22.9z"/>
			<path d="M185.5,0h24.1l14.8,24.3L239.2,0h24.1v69h-23V34.8l-15.9,24.5H224l-15.9-24.5V69h-22.6V0z"/>
			<path d="M274.7,0h23.1v46.2h32.5V69h-55.5V0z"/>
		</g>
	</g>
</g>
<g id="Guides_to_delete">
	<g>
		<polygon class="st0" points="33.1,470.7 0,99.3 363.7,99.3 330.5,470.8 181.8,512 		"/>
		<polygon class="st1" points="181.8,129.7 181.8,480.4 302.2,447.1 330.5,129.7 		"/>
		<polygon class="st2" points="67.7,175.2 80,313 237.9,313 232.6,372.1 181.8,385.8 131,372.1 127.7,334.1 81.9,334.1 88.5,407.3 
			181.8,433.2 275.2,407.3 287.7,267.4 121.7,267.4 117.5,220.8 291.7,220.8 291.9,220.8 295.9,175.2 		"/>
		<g>
			<polygon class="st3" points="181.8,175.2 67.7,175.2 80,313 181.8,313 181.8,267.4 121.7,267.4 117.5,220.8 181.8,220.8 			"/>
			<polygon class="st3" points="181.8,385.8 181.8,385.8 131,372.1 127.7,334.1 81.9,334.1 88.5,407.3 181.8,433.2 181.8,433.2 			
				"/>
		</g>
	</g>
</g>
</svg>
