<?xml version="1.0" encoding="utf-8"?>
<!-- Generator: Adobe Illustrator 25.0.0, SVG Export Plug-In . SVG Version: 6.00 Build 0)  -->
<svg version="1.1" id="Layer_1" xmlns="http://www.w3.org/2000/svg" xmlns:xlink="http://www.w3.org/1999/xlink" x="0px" y="0px"
	 viewBox="0 0 100.5 141.7" style="enable-background:new 0 0 100.5 141.7;" xml:space="preserve">
<style type="text/css">
	.st0{fill:#E6A329;}
	.st1{fill:#F1BF22;}
	.st2{fill:#FFFFFF;}
	.st3{fill:#EBEBEB;}
</style>
<g id="Layer_1_1_">
	<g id="code_x5F_html5">
	</g>
	<g>
		<polygon class="st0" points="100.5,27.7 50.3,27.7 50.3,27.7 0,27.7 9.3,130.1 50.3,141.7 50.3,141.7 50.3,141.7 50.3,141.7 
			50.3,141.7 91.2,130.1 		"/>
		<polygon class="st1" points="50.3,36.1 50.3,133 50.3,133 83.4,123.6 91.4,36.1 		"/>
		<polygon class="st2" points="76.7,48.6 25.7,48.6 22.2,87 22.2,86.7 65.4,86.7 64.1,103 50.3,106.8 36.3,102.8 35.4,93.1 
			22.7,93.1 24.6,112.6 50.3,120 76.1,112.6 79.6,74.2 33.7,74.2 34.2,61.4 66.1,61.4 66.6,68.7 79.4,68.7 		"/>
		<g>
			<path class="st3" d="M50.3,48.6H25.7L22.2,87l0.1-0.2h28.1V74.2h-15L36,61.3h14.2V48.6H50.3z M35.4,93.1H22.7l1.9,19.6l25.7,7.2
				v-13.1l-14-4L35.4,93.1z"/>
		</g>
		<g>
			<polygon points="40.4,12.6 31.6,12.6 31.6,19.1 40.4,19.1 45.3,19.1 46.9,19.1 46.9,0 40.4,0 			"/>
			<path d="M69.1,0.1H53.4c0,0,0,3.4,0,6.7C55.6,9,56.6,10,59.7,13c-1.7,0-6.2,0-6.2,0v6.1h15.6V13l-6.2-6.1h6.2
				C69.1,6.9,69.1,0.1,69.1,0.1z"/>
		</g>
	</g>
</g>
<g id="Layer_2_1_">
</g>
</svg>
