<?xml version="1.0" encoding="utf-8"?>
<!-- Generator: Adobe Illustrator 25.0.0, SVG Export Plug-In . SVG Version: 6.00 Build 0)  -->
<svg version="1.1" id="Layer_1" xmlns="http://www.w3.org/2000/svg" xmlns:xlink="http://www.w3.org/1999/xlink" x="0px" y="0px"
	 viewBox="0 0 752 752" style="enable-background:new 0 0 752 752;" xml:space="preserve">
<style type="text/css">
	.st0{fill:#5A5A5A;}
</style>
<g>
	<path class="st0" d="M401.4,379.3c7.7,0,15-3.1,20.4-8.5l272-272.1v140.7c0,10.3,5.5,19.9,14.5,25c8.9,5.2,20,5.2,28.9,0
		s14.5-14.7,14.5-25V28.9c0-7.7-3.1-15-8.5-20.4C737.7,3.1,730.3,0,722.7,0H512.3c-10.3,0-19.9,5.5-25,14.5c-5.2,8.9-5.2,20,0,28.9
		s14.7,14.5,25,14.5h140.6L379,330c-5.4,5.4-8.4,12.8-8.4,20.4s3,15,8.5,20.4c5.4,5.4,12.8,8.5,20.4,8.5H401.4z"/>
	<path class="st0" d="M722.7,407c-7.7,0-15,3-20.4,8.5c-5.4,5.4-8.5,12.8-8.5,20.4v239c0,5-2,9.8-5.5,13.4
		c-3.5,3.5-8.3,5.5-13.4,5.5H77c-10.4,0-18.9-8.5-18.9-18.9V76.7c0-10.4,8.4-18.9,18.9-18.9h226.1c10.3,0,19.9-5.5,25-14.5
		c5.2-8.9,5.2-20,0-28.9C323,5.5,313.5,0,303.2,0H77C56.6,0,37,8.1,22.6,22.6C8.1,37,0,56.6,0,77.1v597.8c0,20.4,8.1,40.1,22.6,54.5
		C37,743.9,56.6,752,77,752h598c20.4,0,40-8.1,54.5-22.6s22.6-34.1,22.6-54.5v-239c0-7.7-3.1-15.1-8.6-20.6
		C737.9,409.9,730.5,406.9,722.7,407L722.7,407z"/>
</g>
</svg>
