<?xml version="1.0" encoding="utf-8"?>
<!-- Generator: Adobe Illustrator 25.0.0, SVG Export Plug-In . SVG Version: 6.00 Build 0)  -->
<svg version="1.1" id="Layer_1" xmlns="http://www.w3.org/2000/svg" xmlns:xlink="http://www.w3.org/1999/xlink" x="0px" y="0px"
	 viewBox="0 0 1920 1080" style="enable-background:new 0 0 1920 1080;" xml:space="preserve">
<style type="text/css">
	.st0{fill-rule:evenodd;clip-rule:evenodd;fill:#00678F;}
	.st1{fill-rule:evenodd;clip-rule:evenodd;fill:#E38D1A;}
</style>
<g>
	<path class="st0" d="M0,917.6h63.3V666.5l98.9,218.8c11.2,26.2,27.2,36,58.5,36c31.2,0,46.2-9.8,58.1-36l98.5-218.8v251.1h63.9
		V666.5c0-24.4-9.8-36-30.2-42.4c-48.3-14.6-80.5-2-95.1,30.6l-96.9,216.4l-93.5-216.4c-14.2-32.6-46.8-45.2-95.5-30.6
		c-20,6.4-29.6,18-29.6,42.4v251.1H0z"/>
	<path class="st0" d="M493.7,713.4h63.9v137.9c-0.4,7.8,2.4,25.4,37,25.8c18,0.4,137.3,0,138.3,0V712.4h63.9c0,0,0,224.6,0,225.6
		c0,55.7-68.7,67.7-100.9,68.3H495.1v-42.4c0.4,0,200.8,0,201.2,0c40.8-4.4,36-24.8,36-31.6v-16.6H597.4
		c-62.9-0.4-103.3-28.2-103.9-59.9C493.7,852.7,495.1,714.4,493.7,713.4L493.7,713.4z"/>
	<path class="st0" d="M1863.1,553.4c-39-1-69.3,3-94.5,13.6c-7.4,3-19,3-20,12.2c3.8,3.8,4.4,10.2,7.8,15.6
		c5.8,9.8,16,22.8,25.4,29.8c10.2,7.8,20.4,15.6,31.2,22.4c19,11.6,40.4,18.6,59.1,30.2c10.8,6.8,21.4,15.6,32.2,22.8
		c5.4,3.8,8.8,10.2,15.6,12.6c0-0.4,0-1,0-1.4c-3.4-4.4-4.4-10.8-7.8-15.6c-4.8-4.8-9.8-9.2-14.6-14.2c-14.2-19-31.6-35.6-50.7-49.3
		c-15.6-10.8-49.7-25.4-56.1-43.4c0,0-0.4-0.4-1-1c10.8-1,23.4-4.8,33.6-7.8c16.6-4.4,31.6-3.4,48.7-7.8c7.8-2,15.6-4.4,23.4-6.8
		c0-1.4,0-3,0-4.4c-8.8-8.8-15-20.4-24.4-28.8c-24.8-21.4-52.1-42.4-80.5-59.9c-15-9.8-34.6-16-50.7-24.4c-5.8-3-15.6-4.4-19-9.2
		c-8.8-10.8-13.6-24.8-20-37.4c-14.2-26.8-27.8-56.5-40-84.9c-8.8-19-14.2-38-24.8-55.7c-50.3-82.9-104.7-133.1-188.6-182.2
		c-18-10.2-39.4-14.6-62.5-20c-12.2-0.4-24.4-1.4-36.6-2c-7.8-3.4-15.6-12.6-22.4-17c-27.8-17.6-99.5-55.7-119.9-5.4
		c-13.2,31.6,19.4,62.9,30.6,78.9c8.2,11.2,19,23.8,24.8,36.6c3.4,8.2,4.4,17,7.8,25.8c7.8,21.4,15,45.2,25.4,65.3
		c5.4,10.2,11.2,21,18,30.2c3.8,5.4,10.8,7.8,12.2,16.6c-6.8,9.8-7.4,24.4-11.2,36.6c-17.6,55.1-10.8,123.3,14.2,163.8
		c7.8,12.2,26.2,39,51.3,28.8c22-8.8,17-36.6,23.4-60.9c1.4-5.8,0.4-9.8,3.4-13.6c0,0.4,0,1,0,1c6.8,13.6,13.6,26.8,20,40.4
		c15,23.8,41.4,48.7,63.3,65.3c11.6,8.8,21,23.8,35.6,29.2c0-0.4,0-1,0-1.4c-0.4,0-0.4,0-1,0c-3-4.4-7.4-6.4-11.2-9.8
		c-8.8-8.8-18.6-19.4-25.4-29.2c-20.4-27.2-38.4-57.5-54.7-88.7c-7.8-15-14.6-31.6-21-46.8c-3-5.8-3-14.6-7.8-17.6
		c-7.4,10.8-18,20-23.4,33.2c-9.2,21-10.2,46.8-13.6,73.7c-2,0.4-1,0-2,1c-15.6-3.8-21-20-26.8-33.6c-14.6-34.6-17-90.1-4.4-130.1
		c3.4-10.2,18-42.4,12.2-52.1c-3-9.2-12.6-14.6-18-22c-6.4-9.2-13.2-21-17.6-31.2c-11.6-27.2-17.6-57.5-30.2-84.9
		c-5.8-12.6-16-25.8-24.4-37.4c-9.2-13.2-19.4-22.4-26.8-38c-2.4-5.4-5.8-14.2-2-20c1-3.8,3-5.4,6.8-6.4c6.4-5.4,24.4,1.4,30.6,4.4
		c18,7.4,33.2,14.2,48.3,24.4c6.8,4.8,14.2,14.2,22.8,16.6c3.4,0,6.8,0,10.2,0c15.6,3.4,33.2,1,47.8,5.4
		c25.8,8.2,49.3,20.4,70.3,33.6c63.9,40.4,116.5,97.9,152.2,166.8c5.8,11.2,8.2,21.4,13.6,33.2c10.2,23.8,22.8,48.3,33.2,71.7
		c10.2,22.8,20,46.2,34.6,65.3c7.4,10.2,36.6,15.6,49.7,21c9.8,4.4,24.8,8.2,33.6,13.6c16.6,10.2,33.2,22,48.7,33.2
		C1837.3,531.6,1861.7,543.8,1863.1,553.4L1863.1,553.4z"/>
	<path class="st0" d="M1366,130c-8.2,0-14.2,1-20,2.4c0,0,0,0.4,0,1c0.4,0,0.4,0,1,0c3.8,7.8,10.8,13.2,15.6,20
		c3.8,7.8,7.4,15.6,11.2,23.4c0.4-0.4,1-1,1-1c6.8-4.8,10.2-12.6,10.2-24.4c-3-3.4-3.4-6.8-5.8-10.2
		C1376.2,136.4,1370,133.8,1366,130L1366,130z"/>
	<path class="st1" d="M845.5,917.6h183.2c21.4,0,41.8-4.4,58.5-12.2c27.8-12.6,40.8-29.6,40.8-52.1v-46.8c0-18-15-35-45.2-46.8
		c-15.6-5.8-35-9.2-54.1-9.2h-76.9c-25.8,0-38-7.8-41.4-24.8c-0.4-2-0.4-3.8-0.4-5.8v-28.8c0-1.4,0-3.4,0.4-5.4
		c3.4-13.2,10.2-16.6,32.6-19c2,0,4.4,0,5.8,0h181.8v-42.4H952.2c-25.8,0-39.4,1.4-51.7,5.4c-37.4,11.6-54.1,30.2-54.1,62.9v37
		c0,28.8,32.2,53.1,86.7,59.1c5.8,0.4,12.2,0.4,18.4,0.4h65.9c2.4,0,4.8,0,6.8,0.4c20,2,28.8,5.4,34.6,12.6
		c3.8,3.8,4.8,7.4,4.8,11.6v37.2c0,4.4-3,10.2-8.8,15c-5.8,4.8-15,8.2-27.2,8.8c-2.4,0-3.8,0.4-6.4,0.4h-176v42.6H845.5z"/>
	<path class="st1" d="M1525,843.9c0,43.4,32.6,67.7,97.9,72.7c6.4,0.4,12.2,1,18.6,1h165.8v-42.4h-167.2c-37,0-51.3-9.2-51.3-31.6
		V624.1H1525L1525,843.9L1525,843.9z"/>
	<path class="st1" d="M1168.6,845.9V694.7c0-38.4,27.2-61.9,80.5-69.3c5.8-0.4,11.6-1,17-1H1387c6.4,0,11.6,0.4,18,1
		c53.1,7.4,79.9,30.6,79.9,69.3v151.2c0,31.2-11.2,47.8-37.4,59.1l62.5,56.5h-73.7l-50.7-45.8l-51.3,3h-68.3
		c-11.2,0-23.8-1.4-37-4.8C1188.6,902.4,1168.6,880.9,1168.6,845.9L1168.6,845.9z M1237.5,842.5c0,2,1,3.8,1.4,6.4
		c3.4,17.6,20,27.2,45.2,27.2h57.5l-52.7-47.8h73.7l46.2,41.8c8.8-4.8,14.2-11.6,16-20.4c0.4-2,0.4-4.4,0.4-6.4V698.5
		c0-2,0-3.8-0.4-5.8c-3.4-16.6-20-25.8-44.8-25.8h-96.1c-28.2,0-46.8,12.2-46.8,31.6v144H1237.5z"/>
	<path class="st1" d="M1836.3,918h9.2v-35.6h12.2v-7.4h-34v7.4h12.6V918L1836.3,918z M1907,918h8.8v-42.8h-13.2l-10.8,29.2
		l-11.6-29.2h-12.6V918h8.2v-32.6h0.4l12.2,32.6h6.4l12.2-32.6l0,0L1907,918L1907,918z"/>
</g>
</svg>
