<?xml version="1.0" encoding="utf-8"?>
<!-- Generator: Adobe Illustrator 25.0.0, SVG Export Plug-In . SVG Version: 6.00 Build 0)  -->
<svg version="1.1" id="Layer_1" xmlns="http://www.w3.org/2000/svg" xmlns:xlink="http://www.w3.org/1999/xlink" x="0px" y="0px"
	 viewBox="0 0 65.4 60" style="enable-background:new 0 0 65.4 60;" xml:space="preserve">
<style type="text/css">
	.st0{fill-rule:evenodd;clip-rule:evenodd;fill:#00D8FF;}
	.st1{fill:none;stroke:#00D8FF;stroke-width:2;stroke-miterlimit:10;}
</style>
<g>
	<path class="st0" d="M32.6,16.9c2.2,0,4,1.8,4,4.1c0,2.2-1.8,4.1-4,4.1s-4-1.8-4-4.1C28.6,18.8,30.4,16.9,32.6,16.9z"/>
	<path class="st1" d="M32.6,12.7c5.4,0,10.5,0.8,14.3,2.1c4.6,1.6,7.4,4,7.4,6.2c0,2.3-3,4.8-7.9,6.5c-3.7,1.2-8.6,1.9-13.8,1.9
		c-5.3,0-10.3-0.6-14-1.9C13.8,25.8,11,23.2,11,21c0-2.2,2.7-4.5,7.2-6.1C22,13.5,27.1,12.7,32.6,12.7z"/>
	<path class="st1" d="M25.5,16.9c2.7-4.7,5.9-8.7,8.9-11.4c3.7-3.2,7.1-4.5,9-3.4c1.9,1.1,2.7,5,1.6,10.1c-0.8,3.9-2.7,8.4-5.3,12.9
		c-2.6,4.6-5.7,8.7-8.7,11.3c-3.8,3.3-7.4,4.5-9.4,3.4c-1.9-1.1-2.6-4.6-1.7-9.3C20.8,26.6,22.7,21.7,25.5,16.9z"/>
	<path class="st1" d="M25.5,25.2c-2.7-4.7-4.6-9.5-5.3-13.5c-0.9-4.8-0.3-8.4,1.6-9.5c1.9-1.1,5.6,0.2,9.5,3.6
		c2.9,2.6,5.9,6.6,8.5,11c2.6,4.6,4.6,9.3,5.4,13.2c1,5,0.2,8.8-1.7,9.9c-1.9,1.1-5.3-0.1-8.9-3.2C31.5,34.1,28.2,30,25.5,25.2z"/>
	<path class="st0" d="M13.1,59.6l-4.9-7.5c2.6-0.2,4.8-2.1,4.8-5.4c0-3.4-2.4-5.6-5.7-5.6H0v18.5h2.3v-7.4h3.6l4.7,7.4H13.1z
		 M7,50.3H2.2v-7H7c2.2,0,3.6,1.4,3.6,3.5C10.6,48.9,9.1,50.3,7,50.3z M21.6,60c2.2,0,4-0.7,5.2-2.1l-0.9-1.3
		c-1,1.1-2.6,1.6-4.1,1.6c-2.9,0-4.7-2.1-4.8-4.7h10.7V53c0-4-2.3-7.1-6.4-7.1c-3.8,0-6.5,3.2-6.5,7C14.9,57.1,17.7,60,21.6,60z
		 M25.8,52.1h-8.7c0.1-2.1,1.5-4.4,4.3-4.4C24.4,47.6,25.8,50.1,25.8,52.1z M41.5,59.6v-9.2c0-3.3-2.3-4.6-5.1-4.6
		c-2.2,0-3.8,0.7-5.3,2.2l0.9,1.4c1.2-1.3,2.4-1.9,4.1-1.9c2,0,3.4,1.1,3.4,2.8v2.5c-1-1.3-2.6-1.9-4.4-1.9c-2.2,0-4.7,1.4-4.7,4.4
		c0,2.9,2.4,4.4,4.7,4.4c1.7,0,3.3-0.6,4.4-1.9v1.5L41.5,59.6z M35.8,58.5c-2,0-3.3-1.2-3.3-2.9c0-1.8,1.4-2.9,3.3-2.9
		c1.5,0,2.9,0.6,3.6,1.6v2.6C38.6,57.9,37.2,58.5,35.8,58.5z M51.5,60c2.4,0,3.8-1.1,4.9-2.3L55,56.3c-0.9,1.2-2,1.8-3.4,1.8
		c-2.8,0-4.5-2.2-4.5-5.1c0-2.9,1.7-5.1,4.5-5.1c1.4,0,2.6,0.6,3.4,1.8l1.4-1.3c-1-1.3-2.4-2.3-4.9-2.3c-4,0-6.6,3-6.6,7
		C44.9,56.9,47.6,60,51.5,60z M62.6,60c1.2,0,2-0.4,2.4-0.8l-0.6-1.5c-0.2,0.4-0.8,0.6-1.4,0.6c-0.9,0-1.4-0.7-1.4-1.8v-8.3h2.7
		v-1.9h-2.7v-3.6h-2v3.6h-2.2v1.9h2.2v8.7C59.7,58.8,60.7,60,62.6,60z"/>
</g>
</svg>
