<?xml version="1.0" encoding="utf-8"?>
<!-- Generator: Adobe Illustrator 25.0.0, SVG Export Plug-In . SVG Version: 6.00 Build 0)  -->
<svg version="1.1" id="Layer_1" xmlns="http://www.w3.org/2000/svg" xmlns:xlink="http://www.w3.org/1999/xlink" x="0px" y="0px"
	 viewBox="0 0 65.4 60" style="enable-background:new 0 0 65.4 60;" xml:space="preserve">
<style type="text/css">
	.st0{fill:#FFFFFF;}
</style>
<g>
	<circle class="st0" cx="33" cy="22" r="6.5"/>
	<path d="M33,16c3.3,0,6,2.7,6,6s-2.7,6-6,6s-6-2.7-6-6S29.7,16,33,16 M33,15c-3.9,0-7,3.1-7,7s3.1,7,7,7s7-3.1,7-7S36.9,15,33,15
		L33,15z"/>
</g>
<g>
	<path class="st0" d="M17.5,42.5v-4.8c0-3.4,2.8-6.2,6.2-6.2h18.5c3.4,0,6.2,2.8,6.2,6.2v4.8H17.5z"/>
	<path d="M42.3,32c3.2,0,5.7,2.6,5.7,5.7V42H18v-4.3c0-3.2,2.6-5.7,5.7-5.7H42.3 M42.3,31H23.7C20,31,17,34,17,37.7V43h32v-5.3
		C49,34,46,31,42.3,31L42.3,31z"/>
</g>
</svg>
