<?xml version="1.0" encoding="utf-8"?>
<!-- Generator: Adobe Illustrator 25.0.0, SVG Export Plug-In . SVG Version: 6.00 Build 0)  -->
<svg version="1.1" id="Layer_1" xmlns="http://www.w3.org/2000/svg" xmlns:xlink="http://www.w3.org/1999/xlink" x="0px" y="0px"
	 viewBox="0 0 113 23" style="enable-background:new 0 0 113 23;" xml:space="preserve">
<style type="text/css">
	.st0{fill:#0095FF;}
	.st1{fill:#FFFFFF;}
</style>
<path d="M46.4,7.2h3.8c0.4,0,0.7,0,1.1,0.1c0.4,0.1,0.7,0.2,0.9,0.4c0.3,0.2,0.5,0.4,0.7,0.8s0.3,0.7,0.3,1.1c0,0.5-0.2,1-0.5,1.4
	c-0.3,0.4-0.7,0.6-1.2,0.8v0c0.3,0,0.6,0.1,0.8,0.3c0.3,0.1,0.5,0.3,0.7,0.5c0.2,0.2,0.3,0.4,0.4,0.7c0.1,0.3,0.2,0.6,0.2,0.9
	c0,0.5-0.1,1-0.3,1.3c-0.2,0.3-0.5,0.6-0.8,0.8c-0.3,0.2-0.7,0.4-1.2,0.5c-0.4,0.1-0.9,0.1-1.3,0.1h-3.5V7.2z M48.1,11.1h1.6
	c0.6,0,1-0.1,1.3-0.3c0.3-0.2,0.4-0.5,0.4-0.9c0-0.4-0.2-0.7-0.5-0.9c-0.3-0.2-0.8-0.3-1.4-0.3h-1.4V11.1z M48.1,15.4h1.6
	c0.2,0,0.5,0,0.7,0c0.3,0,0.5-0.1,0.7-0.2c0.2-0.1,0.4-0.2,0.5-0.4c0.1-0.2,0.2-0.4,0.2-0.8c0-0.5-0.2-0.9-0.5-1.1
	c-0.3-0.2-0.8-0.3-1.5-0.3h-1.7V15.4z M55.1,10.3h1.6v1h0c0.2-0.4,0.4-0.7,0.8-0.9c0.3-0.2,0.7-0.3,1.2-0.3c0.1,0,0.2,0,0.3,0
	c0.1,0,0.2,0,0.3,0.1v1.6c-0.1,0-0.3-0.1-0.4-0.1c-0.1,0-0.3,0-0.4,0c-0.4,0-0.7,0.1-0.9,0.2c-0.2,0.1-0.4,0.3-0.5,0.5
	c-0.1,0.2-0.2,0.4-0.2,0.5c0,0.2-0.1,0.3-0.1,0.4v3.5h-1.6V10.3z M64.5,16L64.5,16c-0.3,0.4-0.6,0.6-0.9,0.8
	c-0.4,0.2-0.8,0.2-1.2,0.2c-0.3,0-0.6,0-0.9-0.1c-0.3-0.1-0.5-0.2-0.8-0.4c-0.2-0.2-0.4-0.4-0.5-0.6c-0.1-0.2-0.2-0.5-0.2-0.9
	c0-0.4,0.1-0.7,0.2-0.9c0.1-0.3,0.3-0.5,0.5-0.6c0.2-0.2,0.5-0.3,0.8-0.4c0.3-0.1,0.6-0.2,0.9-0.2c0.3-0.1,0.6-0.1,0.9-0.1
	c0.3,0,0.6,0,0.9,0h0.4v-0.2c0-0.4-0.1-0.7-0.4-0.9c-0.3-0.2-0.6-0.3-1.1-0.3c-0.3,0-0.7,0.1-1,0.2c-0.3,0.1-0.6,0.3-0.8,0.5
	l-0.9-0.9c0.4-0.4,0.8-0.6,1.3-0.8c0.5-0.2,1-0.2,1.5-0.2c0.5,0,0.9,0.1,1.2,0.2c0.3,0.1,0.6,0.2,0.8,0.4c0.2,0.2,0.4,0.4,0.5,0.6
	c0.1,0.2,0.2,0.4,0.2,0.6c0.1,0.2,0.1,0.4,0.1,0.6c0,0.2,0,0.4,0,0.5v3.8h-1.5V16z M64.4,13.9H64c-0.2,0-0.5,0-0.8,0
	c-0.3,0-0.6,0.1-0.8,0.1c-0.2,0.1-0.5,0.2-0.6,0.3c-0.2,0.1-0.3,0.3-0.3,0.5c0,0.2,0,0.3,0.1,0.4c0.1,0.1,0.2,0.2,0.3,0.3
	c0.1,0.1,0.2,0.1,0.4,0.2c0.1,0,0.3,0,0.4,0c0.6,0,1-0.1,1.2-0.4c0.3-0.3,0.4-0.6,0.4-1.1V13.9z M67.7,10.3h1.6v6.6h-1.6V10.3z
	 M67.5,8.1c0-0.3,0.1-0.5,0.3-0.7c0.2-0.2,0.5-0.3,0.8-0.3s0.6,0.1,0.8,0.3c0.2,0.2,0.3,0.4,0.3,0.7c0,0.3-0.1,0.5-0.3,0.7
	c-0.2,0.2-0.5,0.3-0.8,0.3S68,9,67.8,8.8C67.6,8.6,67.5,8.3,67.5,8.1z M71.3,10.3h1.6v1.1h0c0.2-0.3,0.4-0.6,0.7-0.8
	c0.3-0.2,0.8-0.4,1.3-0.4c0.4,0,0.8,0.1,1.1,0.2c0.3,0.1,0.6,0.3,0.8,0.6s0.3,0.5,0.4,0.8c0.1,0.3,0.1,0.6,0.1,1v4.1h-1.6v-3.3
	c0-0.2,0-0.4,0-0.6c0-0.2-0.1-0.4-0.2-0.6c-0.1-0.2-0.2-0.4-0.4-0.5c-0.2-0.1-0.4-0.2-0.7-0.2c-0.3,0-0.5,0-0.7,0.1
	c-0.2,0.1-0.3,0.2-0.5,0.4c-0.1,0.2-0.2,0.3-0.3,0.5c-0.1,0.2-0.1,0.4-0.1,0.6v3.6h-1.6V10.3z M79.3,7.2h6.2v1.6H81v2.5h4.3v1.6H81
	v4h-1.7V7.2z M87,6.5h1.6v10.3H87V6.5z M90.5,10.3h1.6v6.6h-1.6V10.3z M90.3,8.1c0-0.3,0.1-0.5,0.3-0.7c0.2-0.2,0.5-0.3,0.8-0.3
	c0.3,0,0.6,0.1,0.8,0.3c0.2,0.2,0.3,0.4,0.3,0.7c0,0.3-0.1,0.5-0.3,0.7c-0.2,0.2-0.5,0.3-0.8,0.3c-0.3,0-0.6-0.1-0.8-0.3
	C90.4,8.6,90.3,8.3,90.3,8.1z M95.7,13.3l-2.3-3h2l1.3,2l1.4-2h1.9l-2.2,3l2.6,3.5h-2l-1.7-2.3l-1.7,2.3h-1.9L95.7,13.3z"/>
<path class="st0" d="M18.1,2.4c-2.7,0-3.4,4.1-3.4,6.2v6.2c0,2.1,0.7,6.2,3.4,6.2h19c2.7,0,3.4-4.1,3.4-6.2V8.6
	c0-2.1-0.7-6.2-3.4-6.2H18.1z"/>
<path class="st1" d="M32.8,11.6l-8.4,4.2V7.5L32.8,11.6z"/>
</svg>
