<svg id="Layer_1" data-name="Layer 1" xmlns="http://www.w3.org/2000/svg" viewBox="0 0 505 215"><defs><style>.cls-1,.cls-2{fill:none;}.cls-2{stroke:red;stroke-miterlimit:10;stroke-width:2px;}</style></defs><rect class="cls-1" width="505" height="215"/><path d="M115.94,66.36h11.8c10.89,0,17.61,6.89,17.61,17.93,0,14.2-9,24.66-23.72,24.66h-14.7Zm-4.13,39h9.57c12.49,0,19.57-8.7,19.62-21.08,0-8.89-4.85-14.41-13.8-14.41h-7.92Z"/><path d="M178.09,90.14c0,8.44-4.73,19.42-16.05,19.42-7,0-11.17-4.52-11.17-12.26,0-8.58,5.17-19.66,16-19.66C173.74,77.64,178.09,82.31,178.09,90.14Zm-23.26,7.12c0,5.44,2.69,8.88,7.66,8.88,8,0,11.59-9,11.59-16,0-5.64-2.45-9.13-7.62-9.13C158.77,81.06,154.83,90.09,154.83,97.26Z"/><path d="M186.84,86.05c.55-2.69,1.06-5.27,1.54-7.8h3.77c-.11,1-.83,4.92-1.06,5.76,1.86-3.14,4.92-6.37,10.72-6.37s9.51,3.28,7.65,11.87L205.38,109h-3.84l4-19.21c1.1-5.08,0-8.54-5.18-8.54-6.38,0-9.94,6.1-11.31,12.6L185.85,109H182Z"/><path d="M216.74,79.39a53,53,0,0,0,6.58-15.32h4a45.8,45.8,0,0,1-7.11,15.32Z"/><path d="M229.51,78.25h5.29l1.94-9.08h3.84l-1.92,9.08h6.82l-.76,3.35H237.9l-4.14,19.76c-.68,3.15-.54,4.54,2.2,4.54a16.25,16.25,0,0,0,3.19-.29l-.78,3.24a11.23,11.23,0,0,1-3.82.51c-4.24,0-6-1.84-4.91-6.83l4.41-20.93h-5.3Z"/><path d="M270.51,66.36h25.43l-.78,3.58H273.87l-3.3,15.53h20L289.79,89h-20l-4.15,20H261.5Z"/><path d="M322.17,90.14c0,8.44-4.73,19.42-16,19.42-7,0-11.17-4.52-11.17-12.26,0-8.58,5.17-19.66,16-19.66C317.82,77.64,322.17,82.31,322.17,90.14Zm-23.26,7.12c0,5.44,2.68,8.88,7.66,8.88,8,0,11.59-9,11.59-16,0-5.64-2.46-9.13-7.63-9.13C302.85,81.06,298.91,90.09,298.91,97.26Z"/><path d="M330.68,87.34c.62-3,1.28-6.26,1.77-9.09h3.71c-.06.79-.61,4.17-1.21,6.83,2.28-4.58,6.55-7.44,11-7.44L345,81.75c-5.94.57-10.52,5.48-12,12.43L329.93,109h-3.86Z"/><path d="M369.74,106.47c-2,9.64-5.2,15.27-15.28,15.27-9.69,0-11-5.54-11-9.11h3.88c0,3.14,2.19,5.83,7.62,5.83,7.16,0,9.3-4.93,11-12.44l.79-3.41a11.39,11.39,0,0,1-10.44,6.27c-5.93,0-9.89-4-9.89-11.76,0-9.13,5.33-19.48,15.49-19.48,5.58,0,8.36,3.07,8.86,5.48.4-1.63,1-3.9,1.35-4.87h3.69c-.6,2.47-1.27,5.55-1.87,8.32ZM350.5,96.86c0,5.7,2.5,8.5,7,8.5,6.24,0,10-5.92,11.51-12.66,1.41-6.51-.43-11.55-7.09-11.55-7.36,0-11.42,7.85-11.42,15.71Z"/><path d="M383.77,93.94a24.94,24.94,0,0,0-.28,3.34c0,5.9,2.92,8.87,7.49,8.87,5,0,7.22-2.77,8.76-5.59h4c-2.12,4.84-5.8,9-13.3,9s-10.89-5.06-10.89-12c0-8.85,4.82-19.88,15.84-19.88,7.93,0,10.52,5.33,10.52,10.64a20.81,20.81,0,0,1-.75,5.66Zm18.15-3.2a12.8,12.8,0,0,0,.22-2.55c0-4.75-2.26-7.22-7-7.22-5,0-8.85,3.54-10.6,9.77Z"/><path d="M412,78.25h5.29l1.94-9.08h3.84l-1.92,9.08H428l-.76,3.35h-6.82l-4.14,19.76c-.68,3.15-.55,4.54,2.2,4.54a16.25,16.25,0,0,0,3.19-.29l-.78,3.24a11.23,11.23,0,0,1-3.82.51c-4.24,0-6-1.84-4.92-6.83l4.42-20.93h-5.3Z"/><path d="M978,99"/><path class="cls-2" d="M74.5,138.5s229-20,371,17"/><path class="cls-2" d="M116.22,155.5s162.34-14.58,306.31,14.21"/></svg>