<?xml version="1.0" encoding="utf-8"?>
<!-- Generator: Adobe Illustrator 25.0.0, SVG Export Plug-In . SVG Version: 6.00 Build 0)  -->
<svg version="1.1" id="Layer_1" xmlns="http://www.w3.org/2000/svg" xmlns:xlink="http://www.w3.org/1999/xlink" x="0px" y="0px"
	 viewBox="0 0 505 215" style="enable-background:new 0 0 505 215;" xml:space="preserve">
<style type="text/css">
	.st0{fill:none;}
	.st1{fill:none;stroke:#FF0000;stroke-width:2;stroke-miterlimit:10;}
</style>
<rect x="34.6" class="st0" width="470.4" height="215"/>
<path d="M115.9,66.4h11.8c10.9,0,17.6,6.9,17.6,17.9c0,14.2-9,24.7-23.7,24.7h-14.7L115.9,66.4z M111.8,105.4h9.6
	c12.5,0,19.6-8.7,19.6-21.1c0-8.9-4.9-14.4-13.8-14.4h-7.9L111.8,105.4z"/>
<path d="M178.1,90.1c0,8.4-4.7,19.4-16.1,19.4c-7,0-11.2-4.5-11.2-12.3c0-8.6,5.2-19.7,16-19.7C173.7,77.6,178.1,82.3,178.1,90.1z
	 M154.8,97.3c0,5.4,2.7,8.9,7.7,8.9c8,0,11.6-9,11.6-16c0-5.6-2.4-9.1-7.6-9.1C158.8,81.1,154.8,90.1,154.8,97.3z"/>
<path d="M186.8,86.1c0.6-2.7,1.1-5.3,1.5-7.8h3.8c-0.1,1-0.8,4.9-1.1,5.8c1.9-3.1,4.9-6.4,10.7-6.4s9.5,3.3,7.6,11.9l-4.1,19.5h-3.8
	l4-19.2c1.1-5.1,0-8.5-5.2-8.5c-6.4,0-9.9,6.1-11.3,12.6l-3.2,15.2H182L186.8,86.1z"/>
<path d="M216.7,79.4c3-4.7,5.2-9.9,6.6-15.3h4c-1.4,5.5-3.8,10.7-7.1,15.3H216.7z"/>
<path d="M229.5,78.2h5.3l1.9-9.1h3.8l-1.9,9.1h6.8l-0.8,3.3h-6.8l-4.1,19.8c-0.7,3.2-0.5,4.5,2.2,4.5c1.1,0,2.1-0.1,3.2-0.3
	l-0.8,3.2c-1.2,0.4-2.5,0.6-3.8,0.5c-4.2,0-6-1.8-4.9-6.8l4.4-20.9h-5.3L229.5,78.2z"/>
<path d="M270.5,66.4h25.4l-0.8,3.6h-21.3l-3.3,15.5h20l-0.8,3.5h-20l-4.1,20h-4.1L270.5,66.4z"/>
<path d="M322.2,90.1c0,8.4-4.7,19.4-16,19.4c-7,0-11.2-4.5-11.2-12.3c0-8.6,5.2-19.7,16-19.7C317.8,77.6,322.2,82.3,322.2,90.1z
	 M298.9,97.3c0,5.4,2.7,8.9,7.7,8.9c8,0,11.6-9,11.6-16c0-5.6-2.5-9.1-7.6-9.1C302.9,81.1,298.9,90.1,298.9,97.3z"/>
<path d="M330.7,87.3c0.6-3,1.3-6.3,1.8-9.1h3.7c-0.1,0.8-0.6,4.2-1.2,6.8c2.3-4.6,6.5-7.4,11-7.4l-0.9,4.1
	c-5.9,0.6-10.5,5.5-12,12.4l-3.1,14.8h-3.9L330.7,87.3z"/>
<path d="M369.7,106.5c-2,9.6-5.2,15.3-15.3,15.3c-9.7,0-11-5.5-11-9.1h3.9c0,3.1,2.2,5.8,7.6,5.8c7.2,0,9.3-4.9,11-12.4l0.8-3.4
	c-2,3.9-6,6.4-10.4,6.3c-5.9,0-9.9-4-9.9-11.8c0-9.1,5.3-19.5,15.5-19.5c5.6,0,8.4,3.1,8.9,5.5c0.4-1.6,1-3.9,1.4-4.9h3.7
	c-0.6,2.5-1.3,5.6-1.9,8.3L369.7,106.5z M350.5,96.9c0,5.7,2.5,8.5,7,8.5c6.2,0,10-5.9,11.5-12.7c1.4-6.5-0.4-11.6-7.1-11.6
	C354.6,81.1,350.5,89,350.5,96.9z"/>
<path d="M383.8,93.9c-0.2,1.1-0.3,2.2-0.3,3.3c0,5.9,2.9,8.9,7.5,8.9c5,0,7.2-2.8,8.8-5.6h4c-2.1,4.8-5.8,9-13.3,9
	s-10.9-5.1-10.9-12c0-8.8,4.8-19.9,15.8-19.9c7.9,0,10.5,5.3,10.5,10.6c0,1.9-0.2,3.8-0.8,5.7L383.8,93.9z M401.9,90.7
	c0.2-0.8,0.2-1.7,0.2-2.6c0-4.8-2.3-7.2-7-7.2c-5,0-8.9,3.5-10.6,9.8H401.9z"/>
<path d="M412,78.2h5.3l1.9-9.1h3.8l-1.9,9.1h6.9l-0.8,3.3h-6.8l-4.1,19.8c-0.7,3.2-0.5,4.5,2.2,4.5c1.1,0,2.1-0.1,3.2-0.3l-0.8,3.2
	c-1.2,0.4-2.5,0.6-3.8,0.5c-4.2,0-6-1.8-4.9-6.8l4.4-20.9h-5.3L412,78.2z"/>
<path d="M978,99"/>
<path class="st1" d="M74.5,138.5c0,0,229-20,371,17"/>
<path class="st1" d="M116.2,155.5c0,0,162.3-14.6,306.3,14.2"/>
</svg>
