<?xml version="1.0" encoding="utf-8"?>
<!-- Generator: Adobe Illustrator 25.0.0, SVG Export Plug-In . SVG Version: 6.00 Build 0)  -->
<svg version="1.1" id="Layer_1" xmlns="http://www.w3.org/2000/svg" xmlns:xlink="http://www.w3.org/1999/xlink" x="0px" y="0px"
	 viewBox="0 0 364 124" style="enable-background:new 0 0 364 124;" xml:space="preserve">
<style type="text/css">
	.st0{fill:none;}
	.st1{fill:#547DBF;}
	.st2{fill:#EA4435;}
	.st3{fill:#F9BC15;}
	.st4{fill:#33A852;}
	.st5{fill:#727272;}
</style>
<rect class="st0" width="364" height="123"/>
<g>
	<path class="st1" d="M62,62.6c0,2.7-0.8,4.9-2.4,6.5C57.8,71,55.4,72,52.5,72c-2.8,0-5.2-1-7.1-2.9s-2.9-4.3-2.9-7.2s1-5.2,2.9-7.2
		c1.9-1.9,4.3-2.9,7.1-2.9c1.4,0,2.8,0.3,4,0.8c1.3,0.5,2.3,1.2,3.1,2.1l-1.8,1.8c-0.6-0.7-1.4-1.3-2.3-1.7c-0.9-0.4-2-0.6-3-0.6
		c-2.1,0-3.9,0.7-5.3,2.2c-1.4,1.5-2.2,3.3-2.2,5.5c0,2.2,0.7,4.1,2.2,5.5c1.5,1.5,3.2,2.2,5.3,2.2c1.9,0,3.5-0.5,4.8-1.6
		s2-2.6,2.2-4.5h-7v-2.3h9.4C61.9,61.6,62,62.1,62,62.6z"/>
	<path class="st2" d="M63.7,64.8c0-2,0.6-3.7,1.9-5c1.3-1.3,2.9-2,4.9-2s3.6,0.7,4.9,2s1.9,3,1.9,5c0,2.1-0.6,3.7-1.9,5
		s-2.9,2-4.9,2s-3.6-0.7-4.9-2C64.3,68.6,63.7,66.9,63.7,64.8z M66.2,64.8c0,1.4,0.4,2.6,1.2,3.5c0.8,0.9,1.9,1.3,3.1,1.3
		s2.2-0.4,3.1-1.3c0.8-0.9,1.2-2,1.2-3.5c0-1.4-0.4-2.5-1.2-3.4c-0.8-0.9-1.9-1.4-3.1-1.4s-2.2,0.5-3.1,1.4
		C66.6,62.3,66.2,63.4,66.2,64.8z"/>
	<path class="st3" d="M78.8,64.8c0-2,0.6-3.7,1.9-5s2.9-2,4.9-2s3.6,0.7,4.9,2s1.9,3,1.9,5c0,2.1-0.6,3.7-1.9,5s-2.9,2-4.9,2
		s-3.6-0.7-4.9-2C79.4,68.6,78.8,66.9,78.8,64.8z M81.3,64.8c0,1.4,0.4,2.6,1.2,3.5c0.8,0.9,1.9,1.3,3.1,1.3s2.2-0.4,3.1-1.3
		c0.8-0.9,1.2-2,1.2-3.5c0-1.4-0.4-2.5-1.2-3.4c-0.8-0.9-1.9-1.4-3.1-1.4s-2.2,0.5-3.1,1.4C81.7,62.3,81.3,63.4,81.3,64.8z"/>
	<path class="st1" d="M100.5,77.7c-0.7,0-1.4-0.1-2.1-0.3c-0.6-0.2-1.2-0.5-1.8-0.8c-0.5-0.3-1-0.7-1.4-1.2s-0.7-1-0.9-1.6l2.3-1
		c0.3,0.8,0.7,1.4,1.4,1.9c0.7,0.5,1.4,0.7,2.3,0.7c1.4,0,2.4-0.4,3.2-1.2c0.8-0.8,1.1-1.9,1.1-3.3v-1.3h-0.1
		c-0.5,0.7-1.1,1.3-1.9,1.7s-1.7,0.6-2.6,0.6c-1.7,0-3.2-0.7-4.5-2c-1.2-1.4-1.8-3.1-1.8-5c0-2,0.6-3.6,1.8-5
		c1.2-1.4,2.7-2.1,4.5-2.1c0.9,0,1.8,0.2,2.6,0.6c0.8,0.4,1.4,1,1.9,1.7h0.1v-1.8h2.4V71c0,2.1-0.6,3.8-1.8,5
		C104.2,77.1,102.5,77.7,100.5,77.7z M100.6,69.6c1.2,0,2.2-0.4,3-1.3s1.2-2,1.2-3.5c0-1.4-0.4-2.5-1.2-3.4c-0.8-0.9-1.8-1.4-3-1.4
		s-2.2,0.5-3,1.4s-1.2,2-1.2,3.4s0.4,2.5,1.2,3.4C98.4,69.2,99.4,69.6,100.6,69.6z"/>
	<path class="st4" d="M112.7,52.1v19.3h-2.5V52.1H112.7z"/>
	<path class="st2" d="M124.7,71c-1.8,0.8-3.5,1-5.2,0.4s-3.1-1.8-4-3.6c-0.9-1.8-1.1-3.6-0.7-5.3c0.5-1.8,1.6-3.1,3.3-3.9
		c1.7-0.9,3.4-1,5-0.4s2.9,1.9,4,4l0.1,0.3L118,67c0.7,1.3,1.8,2.1,3.2,2.3c0.8,0.1,1.6,0,2.3-0.3c1.5-0.6,1.9-1.7,2-1.9l1.8,1
		c-0.2,0.6-0.5,1.1-0.9,1.5C126,70.1,125.6,70.6,124.7,71z M117.3,65.1l6.8-3.4c-0.5-0.8-1.2-1.3-2-1.5c-0.9-0.2-1.8-0.1-2.8,0.4
		c-0.8,0.4-1.4,1-1.8,1.9C117,63.3,117,64.2,117.3,65.1z"/>
	<path class="st5" d="M138.9,71.5h-2.5V52.1h2.5v8.3h9.7v-8.3h2.5v19.3h-2.5v-8.7h-9.7V71.5z"/>
	<path class="st5" d="M160.5,71.9c-1.9,0-3.5-0.7-4.8-2s-1.9-3-1.9-5s0.6-3.7,1.8-5s2.8-2,4.7-2c2,0,3.5,0.6,4.7,1.9s1.7,3,1.7,5.3
		v0.3h-10.4c0,1.3,0.5,2.3,1.3,3.1c0.8,0.8,1.8,1.2,3,1.2c1.6,0,2.8-0.8,3.7-2.4l2.2,1.1c-0.6,1.1-1.4,2-2.5,2.6
		C163,71.6,161.8,71.9,160.5,71.9z M156.5,63.2h7.6c-0.1-0.9-0.4-1.7-1.1-2.3c-0.7-0.6-1.6-0.9-2.7-0.9c-0.9,0-1.7,0.3-2.4,0.9
		C157.2,61.5,156.7,62.3,156.5,63.2z"/>
	<path class="st5" d="M174.2,57.8c1.8,0,3.3,0.5,4.3,1.5c1.1,1,1.6,2.3,1.6,4v8.2h-2.4v-1.8h-0.1c-1,1.5-2.4,2.3-4.1,2.3
		c-1.5,0-2.7-0.4-3.7-1.3s-1.5-1.9-1.5-3.2c0-1.4,0.5-2.5,1.6-3.3c1-0.8,2.4-1.2,4.1-1.2c1.5,0,2.7,0.3,3.6,0.8v-0.6
		c0-0.9-0.3-1.6-1-2.2s-1.5-0.9-2.4-0.9c-1.4,0-2.5,0.6-3.3,1.8l-2.2-1.4C170,58.7,171.8,57.8,174.2,57.8z M170.9,67.4
		c0,0.6,0.3,1.2,0.8,1.6s1.2,0.6,1.9,0.6c1,0,2-0.4,2.8-1.2c0.8-0.8,1.2-1.7,1.2-2.7c-0.8-0.6-1.9-0.9-3.2-0.9c-1,0-1.8,0.2-2.5,0.7
		S170.9,66.7,170.9,67.4z"/>
	<path class="st5" d="M185.4,52.1v19.3h-2.5V52.1H185.4z"/>
	<path class="st5" d="M193.8,71.7c-1.1,0-2-0.3-2.7-1s-1.1-1.6-1.1-2.8v-7.4h-2.3v-2.3h2.3v-4h2.5v4h3.2v2.3h-3.2v6.6
		c0,0.9,0.2,1.5,0.5,1.8s0.7,0.5,1.2,0.5c0.2,0,0.4,0,0.6-0.1c0.2,0,0.4-0.1,0.5-0.2l0.8,2.2C195.4,71.5,194.7,71.7,193.8,71.7z"/>
	<path class="st5" d="M198.2,52.1h2.5v6.1l-0.1,1.8h0.1c0.4-0.6,1-1.2,1.7-1.6c0.8-0.4,1.6-0.6,2.4-0.6c1.6,0,2.9,0.5,3.7,1.4
		c0.9,0.9,1.3,2.2,1.3,4v8.3h-2.5v-7.8c0-2.4-1.1-3.6-3.2-3.6c-1,0-1.9,0.4-2.6,1.3c-0.7,0.8-1,1.8-1,2.9v7.2H198V52.1H198.2z"/>
	<path class="st5" d="M227.8,71.9c-2.9,0-5.3-1-7.2-2.9s-2.9-4.3-2.9-7.2s1-5.3,2.9-7.2s4.3-2.9,7.2-2.9s5.3,1.1,7.1,3.2l-1.8,1.7
		c-1.4-1.7-3.2-2.5-5.3-2.5s-3.9,0.7-5.4,2.2c-1.4,1.4-2.1,3.3-2.1,5.6s0.7,4.1,2.1,5.6c1.4,1.4,3.2,2.2,5.4,2.2s4.2-0.9,5.9-2.8
		l1.8,1.8c-0.9,1.1-2,1.9-3.4,2.6S229.3,71.9,227.8,71.9z"/>
	<path class="st5" d="M236.7,64.8c0-2,0.6-3.7,1.9-5c1.3-1.3,2.9-2,4.9-2s3.6,0.7,4.9,2c1.3,1.3,1.9,3,1.9,5c0,2.1-0.6,3.7-1.9,5
		c-1.3,1.3-2.9,2-4.9,2s-3.6-0.7-4.9-2C237.3,68.6,236.7,66.9,236.7,64.8z M239.1,64.8c0,1.4,0.4,2.6,1.2,3.5s1.9,1.3,3.1,1.3
		c1.2,0,2.2-0.4,3.1-1.3s1.2-2,1.2-3.5c0-1.4-0.4-2.5-1.2-3.4s-1.9-1.4-3.1-1.4s-2.2,0.5-3.1,1.4C239.6,62.3,239.1,63.4,239.1,64.8z
		"/>
	<path class="st5" d="M252.3,58.2h2.4V60h0.1c0.4-0.6,1-1.2,1.7-1.6c0.8-0.4,1.6-0.6,2.4-0.6c1.6,0,2.9,0.5,3.7,1.4
		c0.9,0.9,1.3,2.2,1.3,4v8.3h-2.5v-8.2c-0.1-2.2-1.1-3.2-3.3-3.2c-1,0-1.8,0.4-2.5,1.2s-1,1.8-1,2.9v7.3h-2.5V58.2H252.3z"/>
	<path class="st5" d="M266.9,58.2h2.4V60h0.1c0.4-0.6,1-1.2,1.7-1.6c0.8-0.4,1.6-0.6,2.4-0.6c1.6,0,2.9,0.5,3.7,1.4
		c0.9,0.9,1.3,2.2,1.3,4v8.3H276v-8.2c-0.1-2.2-1.1-3.2-3.3-3.2c-1,0-1.8,0.4-2.5,1.2s-1,1.8-1,2.9v7.3h-2.5V58.2H266.9z"/>
	<path class="st5" d="M287.5,71.9c-1.9,0-3.5-0.7-4.8-2s-1.9-3-1.9-5s0.6-3.7,1.8-5s2.8-2,4.7-2c2,0,3.5,0.6,4.7,1.9s1.7,3,1.7,5.3
		v0.3h-10.4c0,1.3,0.5,2.3,1.3,3.1s1.8,1.2,3,1.2c1.6,0,2.8-0.8,3.7-2.4l2.2,1.1c-0.6,1.1-1.4,2-2.5,2.6S288.8,71.9,287.5,71.9z
		 M283.5,63.2h7.6c-0.1-0.9-0.4-1.7-1.1-2.3s-1.6-0.9-2.7-0.9c-0.9,0-1.7,0.3-2.4,0.9S283.7,62.3,283.5,63.2z"/>
	<path class="st5" d="M302.2,71.9c-2,0-3.6-0.7-4.9-2c-1.3-1.4-1.9-3.1-1.9-5c0-2,0.6-3.7,1.9-5s2.9-2,4.9-2c1.4,0,2.5,0.3,3.5,1
		s1.8,1.6,2.3,2.8l-2.3,0.9c-0.7-1.7-1.9-2.5-3.7-2.5c-1.1,0-2.1,0.5-2.9,1.4s-1.2,2.1-1.2,3.4c0,1.3,0.4,2.5,1.2,3.4
		c0.8,0.9,1.8,1.4,2.9,1.4c1.8,0,3.1-0.8,3.8-2.5l2.2,0.9c-0.5,1.2-1.2,2.1-2.3,2.8C304.8,71.5,303.6,71.9,302.2,71.9z"/>
	<path class="st5" d="M315.3,71.7c-1.1,0-2-0.3-2.7-1s-1.1-1.6-1.1-2.8v-7.4h-2.3v-2.3h2.3v-4h2.5v4h3.2v2.3H314v6.6
		c0,0.9,0.2,1.5,0.5,1.8s0.7,0.5,1.2,0.5c0.2,0,0.4,0,0.6-0.1c0.2,0,0.4-0.1,0.5-0.2l0.8,2.2C317,71.5,316.2,71.7,315.3,71.7z"/>
</g>
</svg>
